<svg id="Layer_1" height="512" viewBox="0 0 150 150" width="512" xmlns="http://www.w3.org/2000/svg" data-name="Layer 1"><path d="m108.545 140.005c-5.124 0-11.313-1.521-18.3-4.557-13.3-5.776-28.037-16.375-41.5-29.843s-24.042-28.2-29.8-41.491c-5.9-13.59-6.076-24.154-.481-29.746l13.683-13.677c2.89-2.888 7.993-2.484 11.376.9l19.599 19.609c3.383 3.384 3.785 8.487.9 11.376l-7.65 7.646c-3.392 3.392.561 14.614 11.854 25.913s22.531 15.275 25.924 11.885l7.65-7.647a6.849 6.849 0 0 1 5.592-1.9 9.454 9.454 0 0 1 5.783 2.8l19.6 19.609a9.451 9.451 0 0 1 2.8 5.785 6.865 6.865 0 0 1 -1.9 5.591l-13.683 13.676c-2.721 2.715-6.61 4.071-11.447 4.071zm-71.53-119.25a4.8 4.8 0 0 0 -3.453 1.35l-13.682 13.677c-4.975 4.972-4.653 14.751.9 27.536 5.66 13.067 16.093 27.582 29.378 40.873s27.807 23.744 40.881 29.423c12.782 5.553 22.563 5.876 27.532.907l13.683-13.675a4.9 4.9 0 0 0 1.325-4 7.446 7.446 0 0 0 -2.222-4.55l-19.6-19.609a7.449 7.449 0 0 0 -4.549-2.224 4.869 4.869 0 0 0 -4 1.323l-7.649 7.647c-4.733 4.732-17.363-.49-28.753-11.885-11.376-11.384-16.583-24.008-11.851-28.739l7.645-7.646c2.11-2.109 1.708-5.943-.9-8.548l-19.6-19.608a7.348 7.348 0 0 0 -5.085-2.252z"/><path d="m56.34 59.839a1 1 0 0 1 -.707-.293l-30.464-30.463a1 1 0 1 1 1.414-1.414l30.464 30.463a1 1 0 0 1 -.707 1.707z"/><path d="m126.007 129.506a1 1 0 0 1 -.707-.293l-30.464-30.464a1 1 0 0 1 1.414-1.414l30.464 30.465a1 1 0 0 1 -.707 1.707z"/><path d="m84.729 74.456a1 1 0 0 1 -.97-1.244l5.512-21.853a1 1 0 0 1 1.676-.463l3.523 3.522 11.96-11.96a1 1 0 0 1 1.414 0l7.883 7.883a1 1 0 0 1 0 1.414l-11.96 11.96 3.521 3.521a1 1 0 0 1 -.463 1.677l-21.852 5.513a1.012 1.012 0 0 1 -.244.03zm6.05-20.9-4.672 18.52 18.521-4.676-2.982-2.982a1 1 0 0 1 0-1.414l11.959-11.96-6.468-6.469-11.96 11.96a1 1 0 0 1 -1.414 0z"/><path d="m88.611 42.291a1 1 0 0 1 -.711-.291l-7.883-7.883a1 1 0 0 1 0-1.414l11.96-11.96-3.517-3.524a1 1 0 0 1 .463-1.677l21.852-5.512a1 1 0 0 1 1.214 1.214l-5.511 21.856a1 1 0 0 1 -1.677.463l-3.523-3.522-11.96 11.959a1 1 0 0 1 -.707.291zm-6.468-8.883 6.468 6.469 11.96-11.96a1 1 0 0 1 1.414 0l2.984 2.982 4.672-18.52-18.521 4.672 2.98 2.983a1 1 0 0 1 0 1.414z"/></svg>