<svg xmlns="http://www.w3.org/2000/svg" viewBox="0 0 64 64"><g id="Layer_86" data-name="Layer 86"><path d="M46.38,39.32a5.51,5.51,0,0,0-7.15-.51L38,39.76a1.69,1.69,0,0,1-2.22-.16L25,28.81a1.7,1.7,0,0,1-.16-2.22l.95-1.27a5.49,5.49,0,0,0-.51-7.14l-3-3a5,5,0,0,0-7,0l-2.07,2.06a9.24,9.24,0,0,0-1.28,11.54A75.79,75.79,0,0,0,35.18,52.06a9.26,9.26,0,0,0,11.54-1.28c1.47-1.48,3.67-3.22,3.51-5.56C50.41,42.77,47.89,40.89,46.38,39.32Z"/><path d="M53.06,10.94a1.49,1.49,0,0,0-2.12,0L44,17.86l-3.93-3.93A1.54,1.54,0,0,0,39,13.49a1.51,1.51,0,0,0-1.5,1.5V25a1.5,1.5,0,0,0,1.5,1.5H49a1.52,1.52,0,0,0,1.5-1.5,1.56,1.56,0,0,0-.44-1.06L46.14,20l6.92-6.92A1.49,1.49,0,0,0,53.06,10.94Z"/></g></svg>