<svg id="Layer_1" height="512" viewBox="0 0 150 150" width="512" xmlns="http://www.w3.org/2000/svg" data-name="Layer 1"><path d="m133.317 103.051h-14.2a1 1 0 0 1 0-2h14.2a4.689 4.689 0 0 0 4.683-4.684v-62.24a4.689 4.689 0 0 0 -4.683-4.684h-116.634a4.689 4.689 0 0 0 -4.683 4.684v62.24a4.689 4.689 0 0 0 4.683 4.684h84.951a1 1 0 0 1 0 2h-84.951a6.691 6.691 0 0 1 -6.683-6.684v-62.24a6.691 6.691 0 0 1 6.683-6.684h116.634a6.691 6.691 0 0 1 6.683 6.684v62.24a6.691 6.691 0 0 1 -6.683 6.684z"/><path d="m104.964 97.3a4.706 4.706 0 0 1 -1.46-.235 4.566 4.566 0 0 1 -3.178-3.969 2.629 2.629 0 0 0 -3.192-2.32 4.628 4.628 0 0 1 -5-6.875 2.629 2.629 0 0 0 -1.22-3.753 4.629 4.629 0 0 1 0-8.5 2.628 2.628 0 0 0 1.22-3.753 4.628 4.628 0 0 1 5-6.875 2.628 2.628 0 0 0 3.192-2.319 4.628 4.628 0 0 1 8.082-2.626 2.715 2.715 0 0 0 3.946 0 4.628 4.628 0 0 1 8.082 2.626 2.628 2.628 0 0 0 3.192 2.319 4.628 4.628 0 0 1 5 6.875 2.628 2.628 0 0 0 1.219 3.753 4.629 4.629 0 0 1 0 8.5 2.628 2.628 0 0 0 -1.219 3.753 4.628 4.628 0 0 1 -5 6.875 2.629 2.629 0 0 0 -3.192 2.32 4.629 4.629 0 0 1 -8.082 2.626 2.715 2.715 0 0 0 -3.946 0 4.563 4.563 0 0 1 -3.444 1.578zm-7.256-8.587a4.628 4.628 0 0 1 4.609 4.195 2.628 2.628 0 0 0 4.59 1.491 4.63 4.63 0 0 1 6.948 0 2.628 2.628 0 0 0 4.59-1.491 4.628 4.628 0 0 1 5.621-4.083 2.628 2.628 0 0 0 2.837-3.9 4.628 4.628 0 0 1 2.147-6.608 2.629 2.629 0 0 0 0-4.827 4.628 4.628 0 0 1 -2.147-6.608 2.628 2.628 0 0 0 -2.837-3.9 4.628 4.628 0 0 1 -5.621-4.083 2.629 2.629 0 0 0 -4.59-1.492 4.629 4.629 0 0 1 -6.948 0 2.629 2.629 0 0 0 -4.59 1.492 4.628 4.628 0 0 1 -5.617 4.074 2.628 2.628 0 0 0 -2.837 3.9 4.627 4.627 0 0 1 -2.147 6.608 2.629 2.629 0 0 0 0 4.827 4.627 4.627 0 0 1 2.147 6.608 2.628 2.628 0 0 0 2.837 3.9 4.636 4.636 0 0 1 1.008-.104z"/><path d="m101.637 122.557a1 1 0 0 1 -1-1v-27.387a1 1 0 0 1 2 0v25l7.047-6.955a1 1 0 0 1 1.406 0l7.031 6.951v-24.996a1 1 0 0 1 2 0v27.387a1 1 0 0 1 -1.7.711l-8.031-7.941-8.047 7.942a1 1 0 0 1 -.706.288z"/><path d="m110.377 89.111a12.61 12.61 0 1 1 12.623-12.611 12.625 12.625 0 0 1 -12.623 12.611zm0-23.22a10.61 10.61 0 1 0 10.623 10.609 10.622 10.622 0 0 0 -10.623-10.609z"/><path d="m128.175 42.162h-107.433a1 1 0 1 1 0-2h107.433a1 1 0 0 1 0 2z"/><path d="m79.465 57.812h-58.723a1 1 0 0 1 0-2h58.723a1 1 0 0 1 0 2z"/><path d="m79.465 73.462h-58.723a1 1 0 0 1 0-2h58.723a1 1 0 0 1 0 2z"/><path d="m79.465 89.111h-58.723a1 1 0 0 1 0-2h58.723a1 1 0 0 1 0 2z"/></svg>