<svg id="Layer_1" height="512" viewBox="0 0 150 150" width="512" xmlns="http://www.w3.org/2000/svg" data-name="Layer 1"><path d="m109.286 139.059h-88.6a1 1 0 0 1 0-2h88.605a10.171 10.171 0 0 0 10.159-10.16v-86.711a1 1 0 1 1 2 0v86.712a12.173 12.173 0 0 1 -12.164 12.159z"/><path d="m20.681 139.059a10.693 10.693 0 0 1 -10.681-10.681v-17.478a1 1 0 0 1 1-1h18.361v-88.6a10.376 10.376 0 0 1 10.364-10.359h85.158a15.134 15.134 0 0 1 15.117 15.118v14.117a1 1 0 0 1 -1 1l-89.912.055a1 1 0 0 1 -1-1v-18.931a8.364 8.364 0 0 0 -16.727 0v107.078a10.693 10.693 0 0 1 -10.68 10.681zm-8.681-27.159v16.48a8.681 8.681 0 1 0 17.361 0v-16.48zm33.838-98.959a10.357 10.357 0 0 1 4.25 8.363v17.926l87.912-.053v-13.118a13.133 13.133 0 0 0 -13.117-13.118z"/><path d="m98.234 117.113a5.088 5.088 0 0 1 -4.078-2.022 3.134 3.134 0 0 0 -2.908-1.2 5.125 5.125 0 0 1 -5.769-5.769 3.132 3.132 0 0 0 -1.206-2.909 5.125 5.125 0 0 1 0-8.158 3.131 3.131 0 0 0 1.206-2.909 5.125 5.125 0 0 1 5.769-5.768 3.139 3.139 0 0 0 2.908-1.206 5.088 5.088 0 0 1 4.078-2.021 5.085 5.085 0 0 1 4.079 2.021 3.142 3.142 0 0 0 2.909 1.206 5.125 5.125 0 0 1 5.769 5.769 3.133 3.133 0 0 0 1.2 2.908 5.124 5.124 0 0 1 0 8.158 3.135 3.135 0 0 0 -1.2 2.909 5.125 5.125 0 0 1 -5.769 5.769 3.137 3.137 0 0 0 -2.909 1.2 5.085 5.085 0 0 1 -4.079 2.022zm-6.57-5.255a5.141 5.141 0 0 1 4.083 2.021 3.1 3.1 0 0 0 2.486 1.234 3.1 3.1 0 0 0 2.488-1.233 5.124 5.124 0 0 1 4.769-1.976 3.126 3.126 0 0 0 3.518-3.518 5.139 5.139 0 0 1 1.975-4.769 3.124 3.124 0 0 0 0-4.975 5.141 5.141 0 0 1 -1.975-4.769 3.127 3.127 0 0 0 -3.518-3.519 5.129 5.129 0 0 1 -4.769-1.975 3.126 3.126 0 0 0 -4.975 0 5.136 5.136 0 0 1 -4.769 1.975 3.127 3.127 0 0 0 -3.518 3.518 5.139 5.139 0 0 1 -1.977 4.77 3.126 3.126 0 0 0 0 4.975 5.138 5.138 0 0 1 1.977 4.769 3.126 3.126 0 0 0 3.518 3.518 5.122 5.122 0 0 1 .687-.046z"/><path d="m105.432 130.575a1 1 0 0 1 -.7-.285l-6.494-6.352-6.508 6.353a1 1 0 0 1 -1.7-.716v-16.675a1 1 0 0 1 2 0v14.3l5.509-5.377a1 1 0 0 1 1.4 0l5.494 5.373v-14.296a1 1 0 0 1 2 0v16.675a1 1 0 0 1 -1 1z"/><path d="m111.431 72.562h-68.8a1 1 0 0 1 0-2h68.8a1 1 0 0 1 0 2z"/><path d="m111.431 56.923h-68.8a1 1 0 0 1 0-2h68.8a1 1 0 0 1 0 2z"/><path d="m74.892 89.872h-32.261a1 1 0 1 1 0-2h32.261a1 1 0 0 1 0 2z"/><path d="m74.892 107.182h-32.261a1 1 0 1 1 0-2h32.261a1 1 0 0 1 0 2z"/><path d="m74.892 124.492h-32.261a1 1 0 1 1 0-2h32.261a1 1 0 0 1 0 2z"/><path d="m96.913 106.237a1 1 0 0 1 -.707-.293l-3.416-3.417a1 1 0 1 1 1.414-1.414l2.709 2.71 6.627-6.623a1 1 0 1 1 1.414 1.414l-7.334 7.334a1 1 0 0 1 -.707.289z"/></svg>