<svg id="Layer_1" height="512" viewBox="0 0 150 150" width="512" xmlns="http://www.w3.org/2000/svg" data-name="Layer 1"><path d="m99.317 38.616a.979.979 0 0 1 -.283-.041c-27.18-8.035-47.779-.11-47.984-.029a1 1 0 0 1 -.93-.1l-17.42-11.859a1 1 0 0 1 .228-1.77l41.616-14.759a1 1 0 0 1 .658 0l43.312 14.759a1 1 0 0 1 .209 1.793l-18.874 11.853a1 1 0 0 1 -.532.153zm-24.877-5.627a88.62 88.62 0 0 1 24.727 3.541l16.715-10.5-41-13.97-39.428 13.983 15.369 10.457a75.019 75.019 0 0 1 23.617-3.511z"/><path d="m75 87.251a25.345 25.345 0 0 1 -25.317-25.317v-24.318a1 1 0 0 1 2 0v24.318a23.317 23.317 0 0 0 46.634 0v-24.318a1 1 0 0 1 2 0v24.318a25.345 25.345 0 0 1 -25.317 25.317z"/><path d="m99.318 48.053a1.017 1.017 0 0 1 -.261-.034c-26.232-7.091-47.843-.089-48.057-.019a1 1 0 0 1 -.633-1.9c.221-.075 22.375-7.268 49.212-.017a1 1 0 0 1 -.26 1.966z"/><path d="m90.617 121.127a1 1 0 0 1 -.572-.18l-15.617-10.888a1 1 0 0 1 -.016-1.63l15.617-11.344a1 1 0 0 1 1.176 1.615l-14.48 10.518 13.57 9.462 10.334-17.925a1 1 0 0 1 1.733 1l-10.879 18.871a1 1 0 0 1 -.866.5z"/><path d="m114.319 140a1 1 0 0 1 -1-1v-13.309a1 1 0 0 1 2 0v13.309a1 1 0 0 1 -1 1z"/><path d="m85.526 140a1 1 0 0 1 -.922-.612l-7.018-16.7a1 1 0 0 1 .05-.877l4.281-7.635a1 1 0 1 1 1.744.978l-4.041 7.209 6.827 16.245a1 1 0 0 1 -.921 1.392z"/><path d="m131.5 140h-113a1 1 0 0 1 -1-1v-19.726a19.467 19.467 0 0 1 20.257-19.452l13.618.551a9.143 9.143 0 0 0 9.384-7.717l1.49-9.592a1 1 0 1 1 1.976.307l-1.49 9.592a11.106 11.106 0 0 1 -11.442 9.408l-13.617-.551a17.469 17.469 0 0 0 -18.176 17.454v18.726h111v-18.726a17.469 17.469 0 0 0 -18.175-17.454l-13.617.551a11.118 11.118 0 0 1 -11.442-9.408l-1.49-9.592a1 1 0 1 1 1.976-.307l1.49 9.592a9.133 9.133 0 0 0 9.384 7.717l13.618-.551a19.467 19.467 0 0 1 20.256 19.452v19.726a1 1 0 0 1 -1 1z"/><path d="m59.383 121.127a1 1 0 0 1 -.866-.5l-10.879-18.87a1 1 0 0 1 1.733-1l10.334 17.925 13.57-9.462-14.475-10.52a1 1 0 0 1 1.176-1.619l15.617 11.344a1 1 0 0 1 -.016 1.63l-15.622 10.892a1 1 0 0 1 -.572.18z"/><path d="m35.681 140a1 1 0 0 1 -1-1v-13.309a1 1 0 0 1 2 0v13.309a1 1 0 0 1 -1 1z"/><path d="m64.474 140a1 1 0 0 1 -.921-1.388l6.827-16.245-4.041-7.209a1 1 0 1 1 1.744-.978l4.281 7.635a1 1 0 0 1 .05.877l-7.018 16.7a1 1 0 0 1 -.922.608z"/><path d="m99.336 64.446a1.007 1.007 0 0 1 -1.009-1 .992.992 0 0 1 .99-1 3.533 3.533 0 0 0 3.544-3.525v-2.021a3.529 3.529 0 0 0 -3.525-3.525 1 1 0 0 1 0-2 5.531 5.531 0 0 1 5.525 5.525v2.02a5.531 5.531 0 0 1 -5.525 5.526z"/><path d="m50.683 64.446a5.535 5.535 0 0 1 -5.544-5.525v-2.021a5.531 5.531 0 0 1 5.525-5.525 1 1 0 0 1 0 2 3.529 3.529 0 0 0 -3.525 3.525v2.02a3.529 3.529 0 0 0 3.525 3.525 1.008 1.008 0 0 1 1.009 1 .991.991 0 0 1 -.99 1.001z"/><rect height="15.667" rx="1" width="2" x="32.264" y="24.76"/><path d="m33.268 45.754a3.664 3.664 0 1 1 3.657-3.654 3.668 3.668 0 0 1 -3.657 3.654zm0-5.327a1.664 1.664 0 1 0 1.657 1.673 1.673 1.673 0 0 0 -1.657-1.673z"/><path d="m37.863 62.21h-9.2a1 1 0 0 1 -.963-1.27l4.609-16.456a1 1 0 0 1 .963-.73 1 1 0 0 1 .962.731l4.6 16.456a1 1 0 0 1 -.964 1.269zm-7.886-2h6.569l-3.279-11.743z"/><path d="m78.508 123.305h-7.016a1 1 0 0 1 0-2h7.016a1 1 0 0 1 0 2z"/></svg>