<svg id="Layer_1" height="512" viewBox="0 0 150 150" width="512" xmlns="http://www.w3.org/2000/svg" data-name="Layer 1"><path d="m139 136.939h-128a1 1 0 0 1 -1-1v-67.061a1 1 0 0 1 .35-.76l15.025-12.866a1 1 0 1 1 1.3 1.519l-14.675 12.567v65.6h126v-65.6l-14.676-12.567a1 1 0 1 1 1.3-1.519l15.026 12.866a1 1 0 0 1 .35.76v67.061a1 1 0 0 1 -1 1z"/><path d="m91.239 28.974a.993.993 0 0 1 -.65-.241l-15.589-13.356-15.589 13.356a1 1 0 0 1 -1.3-1.519l16.239-13.914a1 1 0 0 1 1.3 0l16.24 13.914a1 1 0 0 1 -.651 1.76z"/><path d="m75 117.739a1 1 0 0 1 -.6-.2l-64-47.861a1 1 0 1 1 1.2-1.6l63.4 47.412 63.4-47.413a1 1 0 0 1 1.2 1.6l-64 47.861a1 1 0 0 1 -.6.201z"/><path d="m123.974 81.12a1 1 0 0 1 -1-1v-51.146h-95.948v51.146a1 1 0 0 1 -2 0v-52.146a1 1 0 0 1 1-1h97.948a1 1 0 0 1 1 1v52.146a1 1 0 0 1 -1 1z"/><path d="m77.167 43.583h-40.334a1 1 0 0 1 0-2h40.334a1 1 0 0 1 0 2z"/><path d="m113.167 55.047h-75.334a1 1 0 0 1 0-2h75.334a1 1 0 0 1 0 2z"/><path d="m113.167 66.511h-75.334a1 1 0 0 1 0-2h75.334a1 1 0 0 1 0 2z"/><path d="m113.167 77.975h-75.334a1 1 0 0 1 0-2h75.334a1 1 0 0 1 0 2z"/></svg>