<svg id="Layer_1" height="512" viewBox="0 0 150 150" width="512" xmlns="http://www.w3.org/2000/svg" data-name="Layer 1"><path d="m133.6 127.11h-117.2a6.4 6.4 0 0 1 -6.4-6.4v-69.841a6.4 6.4 0 0 1 6.4-6.4h47.311a1 1 0 0 1 0 2h-47.311a4.4 4.4 0 0 0 -4.4 4.4v69.845a4.4 4.4 0 0 0 4.4 4.4h117.2a4.4 4.4 0 0 0 4.4-4.4v-69.845a4.4 4.4 0 0 0 -4.4-4.4h-47.311a1 1 0 0 1 0-2h47.311a6.4 6.4 0 0 1 6.4 6.4v69.845a6.4 6.4 0 0 1 -6.4 6.396z"/><path d="m87.884 60.116h-25.768a5.347 5.347 0 0 1 -.024-10.693h1.619a1 1 0 0 1 0 2h-1.595a3.347 3.347 0 1 0 0 6.693h25.768a3.356 3.356 0 0 0 3.352-3.352 3.32 3.32 0 0 0 -.987-2.371 3.22 3.22 0 0 0 -2.36-.97h-1.6a1 1 0 1 1 0-2h1.595a5.381 5.381 0 0 1 3.775 1.552 5.3 5.3 0 0 1 1.577 3.789 5.358 5.358 0 0 1 -5.352 5.352z"/><path d="m86.289 55.764h-22.578a1 1 0 0 1 -1-1v-30.874a1 1 0 0 1 1-1h22.578a1 1 0 0 1 1 1v30.874a1 1 0 0 1 -1 1zm-21.578-2h20.578v-28.874h-20.578z"/><path d="m74.993 42.533a6.353 6.353 0 1 1 6.353-6.353 6.353 6.353 0 0 1 -6.353 6.353zm0-10.705a4.353 4.353 0 1 0 4.353 4.352 4.351 4.351 0 0 0 -4.353-4.352z"/><path d="m59.318 112.569h-30.976a2.327 2.327 0 0 1 -2.324-2.324v-3.315a9.191 9.191 0 0 1 7.173-8.922l4.326-.886a1.924 1.924 0 0 0 1.3-.879 1.887 1.887 0 0 0 .247-.931 1 1 0 0 1 2 0 3.807 3.807 0 0 1 -3.146 3.769l-4.312.883a7.175 7.175 0 0 0 -5.589 6.966v3.315a.325.325 0 0 0 .324.324h30.977a.325.325 0 0 0 .325-.324v-3.315a7.18 7.18 0 0 0 -5.6-6.969l-4.157-.852a4.244 4.244 0 0 1 -3.094-2.472 3.849 3.849 0 0 1 -.311-1.5 1 1 0 0 1 2 0 1.885 1.885 0 0 0 .155.721 2.246 2.246 0 0 0 1.652 1.287l4.171.855a9.2 9.2 0 0 1 7.188 8.925v3.315a2.327 2.327 0 0 1 -2.329 2.329z"/><path d="m34.536 85.1a1 1 0 0 1 -.932-.638c-.282-.729-2.708-7.216-.836-10.458a3.583 3.583 0 0 1 2.654-1.783 12.532 12.532 0 0 0 4.112-1.367c2.863-1.57 7.018-3.042 10.556-1.137a10.146 10.146 0 0 1 5.5 9.243 4.014 4.014 0 0 1 -2.021 3.187 5.528 5.528 0 0 1 -4.984.451 1.371 1.371 0 0 0 -1.263.042l-.065.038a3.351 3.351 0 0 1 -3.757-.278c-.442-.342-1.458-.816-5.126-1.113-.394 1.349-1.37 3.43-3.672 3.8a.963.963 0 0 1 -.166.013zm11.824-14.285a12.872 12.872 0 0 0 -5.865 1.791 14.472 14.472 0 0 1 -4.766 1.59 1.594 1.594 0 0 0 -1.229.804c-1 1.741-.051 5.674.643 7.8a4.515 4.515 0 0 0 1.464-2.755 1 1 0 0 1 1.052-.827c4.541.3 6.106.852 7.058 1.587a1.363 1.363 0 0 0 1.523.143l.573.823-.508-.861a3.344 3.344 0 0 1 3.085-.149 3.576 3.576 0 0 0 3.126-.322 2.081 2.081 0 0 0 1.074-1.581 8.14 8.14 0 0 0 -4.446-7.387 5.8 5.8 0 0 0 -2.784-.656z"/><path d="m43.685 97.992a4.912 4.912 0 0 1 -2.339-.586 14.792 14.792 0 0 1 -5.3-5.534 6.46 6.46 0 0 1 -2.426-8.172 1 1 0 1 1 1.834.8c-.164.387-1.521 3.87 1.836 5.789a1 1 0 0 1 .4.416 13.149 13.149 0 0 0 4.61 4.942 2.933 2.933 0 0 0 2.77 0 13.073 13.073 0 0 0 4.612-4.947 1 1 0 0 1 .4-.417c3.544-2.025 1.806-8.365 1.787-8.429a1 1 0 0 1 1.926-.542c.089.316 2.091 7.647-2.466 10.553a14.775 14.775 0 0 1 -5.3 5.537 4.91 4.91 0 0 1 -2.344.59z"/><path d="m43.684 104.355a1 1 0 0 1 -.662-.249l-5.965-5.254a1 1 0 0 1 1.322-1.5l5.329 4.693 5.742-4.689a1 1 0 0 1 1.266 1.544l-6.4 5.226a1 1 0 0 1 -.632.229z"/><path d="m55.146 107.72h-3.871a1 1 0 0 1 0-2h3.871a1 1 0 0 1 0 2z"/><path d="m67.58 118.07h-47.5a1 1 0 0 1 -1-1v-52.75a1 1 0 0 1 1-1h47.5a1 1 0 0 1 1 1v52.75a1 1 0 0 1 -1 1zm-46.5-2h45.5v-50.75h-45.5z"/><path d="m43.684 112.569a1 1 0 0 1 -1-1v-8.214a1 1 0 1 1 2 0v8.214a1 1 0 0 1 -1 1z"/><path d="m110.965 73.82h-34.965a1 1 0 0 1 0-2h34.968a1 1 0 0 1 0 2z"/><path d="m131 87.765h-55a1 1 0 0 1 0-2h55a1 1 0 0 1 0 2z"/><path d="m131 101.709h-55a1 1 0 0 1 0-2h55a1 1 0 0 1 0 2z"/><path d="m131 115.653h-55a1 1 0 0 1 0-2h55a1 1 0 0 1 0 2z"/></svg>