<?xml version="1.0" encoding="UTF-8"?>
<svg xmlns="http://www.w3.org/2000/svg" id="Layer_1" data-name="Layer 1" viewBox="0 0 150 150" width="512" height="512"><path d="M62.427,106.634a9.62,9.62,0,0,1-2.972-.476,9.292,9.292,0,0,1-6.466-8.077,7.416,7.416,0,0,0-9.007-6.545A9.416,9.416,0,0,1,33.819,77.549a7.417,7.417,0,0,0-3.441-10.59,9.416,9.416,0,0,1,0-17.289,7.416,7.416,0,0,0,3.441-10.589A9.417,9.417,0,0,1,43.982,25.093a7.416,7.416,0,0,0,9.007-6.544,9.417,9.417,0,0,1,16.444-5.343,7.417,7.417,0,0,0,11.134,0h0a9.417,9.417,0,0,1,16.444,5.343,7.416,7.416,0,0,0,9.007,6.544,9.417,9.417,0,0,1,10.163,13.988,7.416,7.416,0,0,0,3.441,10.589,9.416,9.416,0,0,1,0,17.289,7.417,7.417,0,0,0-3.441,10.59,9.416,9.416,0,0,1-10.163,13.987,7.416,7.416,0,0,0-9.007,6.545,9.417,9.417,0,0,1-16.444,5.343,7.415,7.415,0,0,0-11.134,0A9.285,9.285,0,0,1,62.427,106.634ZM75,98.907a9.417,9.417,0,0,1,7.068,3.2A7.418,7.418,0,0,0,95.02,97.9a9.414,9.414,0,0,1,11.436-8.31,7.416,7.416,0,0,0,8-11.017,9.416,9.416,0,0,1,4.369-13.444,7.417,7.417,0,0,0,0-13.618,9.416,9.416,0,0,1-4.369-13.444,7.417,7.417,0,0,0-8-11.018A9.414,9.414,0,0,1,95.02,18.735a7.418,7.418,0,0,0-12.952-4.208,9.415,9.415,0,0,1-14.136,0A7.418,7.418,0,0,0,54.98,18.735a9.414,9.414,0,0,1-11.436,8.309,7.417,7.417,0,0,0-8,11.018,9.416,9.416,0,0,1-4.369,13.444,7.417,7.417,0,0,0,0,13.618A9.416,9.416,0,0,1,35.54,78.568a7.416,7.416,0,0,0,8,11.017A9.415,9.415,0,0,1,54.98,97.894,7.418,7.418,0,0,0,67.932,102.1,9.417,9.417,0,0,1,75,98.907Z"/><path d="M92.835,140h0a1,1,0,0,1-.947-.688L79.791,102.486a1,1,0,1,1,1.9-.624l11.154,33.963,6.987-20.832a1,1,0,0,1,1.524-.5L119.3,127.138,107.458,91.073a1,1,0,1,1,1.9-.624l12.786,38.933a1,1,0,0,1-1.526,1.13L101.3,116.9l-7.519,22.416A1,1,0,0,1,92.835,140Z"/><path d="M57.166,140a1,1,0,0,1-.949-.682L48.7,116.9,29.383,130.512a1,1,0,0,1-1.527-1.13L40.642,90.449a1,1,0,0,1,1.9.624L30.7,127.138l17.945-12.644a1,1,0,0,1,1.524.5l6.987,20.833,11.154-33.964a1,1,0,1,1,1.9.624L58.116,139.312a1,1,0,0,1-.948.688Z"/><path d="M77.95,91.45h-5.9a1,1,0,0,1-.963-.73L69.5,85.061a25.2,25.2,0,0,1-8.193-3.393l-5.132,2.871a1,1,0,0,1-1.2-.166l-4.166-4.166a1,1,0,0,1-.165-1.195l2.87-5.132a25.249,25.249,0,0,1-3.393-8.193L44.466,64.1a1,1,0,0,1-.73-.963v-5.9a1,1,0,0,1,.73-.963l5.659-1.587a25.3,25.3,0,0,1,3.394-8.193l-2.871-5.133a1,1,0,0,1,.164-1.194l4.167-4.175a1,1,0,0,1,1.2-.166l5.139,2.886a25.064,25.064,0,0,1,8.185-3.4l1.587-5.659a1,1,0,0,1,.963-.73h5.9a1,1,0,0,1,.963.73L80.5,35.312a25.119,25.119,0,0,1,8.185,3.4l5.139-2.886a1,1,0,0,1,1.2.165L99.2,40.166a1,1,0,0,1,.165,1.2L96.482,46.5a25.31,25.31,0,0,1,3.393,8.192l5.659,1.587a1,1,0,0,1,.73.963v5.9a1,1,0,0,1-.73.963l-5.659,1.588a25.234,25.234,0,0,1-3.393,8.192l2.878,5.132a1,1,0,0,1-.165,1.2L95.02,84.374a1,1,0,0,1-1.195.165l-5.132-2.871A25.187,25.187,0,0,1,80.5,85.061L78.913,90.72A1,1,0,0,1,77.95,91.45Zm-5.141-2h4.382l1.547-5.514a1,1,0,0,1,.772-.712,23.255,23.255,0,0,0,8.584-3.554.993.993,0,0,1,1.047-.043l5,2.8,3.1-3.1-2.8-5a1,1,0,0,1,.042-1.048A23.26,23.26,0,0,0,98.038,64.7a1,1,0,0,1,.711-.771l5.515-1.547V58l-5.515-1.547a1,1,0,0,1-.711-.771,23.375,23.375,0,0,0-3.556-8.586,1,1,0,0,1-.041-1.046l2.8-5-3.1-3.1-5.009,2.813a1,1,0,0,1-1.05-.044,23.146,23.146,0,0,0-8.574-3.561,1,1,0,0,1-.771-.711l-1.547-5.515H72.809l-1.547,5.515a1,1,0,0,1-.772.711,23.113,23.113,0,0,0-8.573,3.561,1,1,0,0,1-1.05.044l-5.009-2.812-3.1,3.1,2.8,5a1,1,0,0,1-.042,1.045,23.358,23.358,0,0,0-3.556,8.586,1,1,0,0,1-.711.771L45.736,58v4.383l5.515,1.547a1,1,0,0,1,.711.771,23.26,23.26,0,0,0,3.555,8.584,1,1,0,0,1,.043,1.047l-2.8,5,3.1,3.1,5-2.8a.994.994,0,0,1,1.047.043,23.255,23.255,0,0,0,8.584,3.554,1,1,0,0,1,.772.712Z"/><path d="M75,75.635A15.449,15.449,0,1,1,90.449,60.192,15.46,15.46,0,0,1,75,75.635Zm0-28.9A13.449,13.449,0,1,0,88.449,60.192,13.464,13.464,0,0,0,75,46.738Z"/></svg>
