<svg id="Layer_1" height="512" viewBox="0 0 150 150" width="512" xmlns="http://www.w3.org/2000/svg" data-name="Layer 1"><path d="m81.768 140h-12.5a1 1 0 0 1 -.961-.723l-3.636-12.577a52.227 52.227 0 0 1 -18.221-7.38l-11.38 6.48a1 1 0 0 1 -1.2-.157l-8.891-8.734a1 1 0 0 1 -.175-1.2l6.321-11.479a52.23 52.23 0 0 1 -7.662-18.1l-12.629-3.43a1 1 0 0 1 -.737-.957l-.097-12.47a1 1 0 0 1 .723-.968l12.577-3.634a52.422 52.422 0 0 1 7.379-18.22l-6.5-11.38a1 1 0 0 1 .156-1.2l8.753-8.891a1 1 0 0 1 1.2-.174l11.5 6.338a52 52 0 0 1 18.086-7.679l3.426-12.63a1 1 0 0 1 .957-.737l12.47-.098h.007a1 1 0 0 1 .961.723l3.634 12.577a51.931 51.931 0 0 1 18.2 7.4l11.4-6.517a1 1 0 0 1 1.2.156l8.871 8.75a1 1 0 0 1 .174 1.193l-6.3 11.48a52.411 52.411 0 0 1 7.662 18.1l12.63 3.438a1 1 0 0 1 .737.957l.1 12.467a1 1 0 0 1 -.723.968l-12.58 3.637a52.224 52.224 0 0 1 -7.379 18.222l6.479 11.379a1 1 0 0 1 -.157 1.2l-8.732 8.87a1 1 0 0 1 -1.194.176l-11.478-6.305a52.184 52.184 0 0 1 -18.1 7.661l-3.4 12.729a1 1 0 0 1 -.971.739zm-11.75-2h10.982l3.365-12.581a1 1 0 0 1 .766-.721 50.241 50.241 0 0 0 18.489-7.825 1 1 0 0 1 1.046-.052l11.351 6.235 7.673-7.793-6.41-11.253a1 1 0 0 1 .035-1.047 50.284 50.284 0 0 0 7.535-18.609 1 1 0 0 1 .706-.777l12.438-3.593-.085-10.951-12.494-3.4a1 1 0 0 1 -.717-.766 50.455 50.455 0 0 0 -7.825-18.49 1 1 0 0 1 -.051-1.045l6.235-11.353-7.8-7.689-11.269 6.445a1 1 0 0 1 -1.051-.035 49.943 49.943 0 0 0 -18.583-7.55 1 1 0 0 1 -.777-.706l-3.593-12.438-10.95.086-3.4 12.492a1 1 0 0 1 -.765.717 50 50 0 0 0 -18.469 7.843 1.006 1.006 0 0 1 -1.05.051l-11.37-6.269-7.689 7.811 6.427 11.252a1 1 0 0 1 -.033 1.047 50.478 50.478 0 0 0 -7.536 18.61 1 1 0 0 1 -.706.777l-12.437 3.593.085 10.951 12.493 3.4a1 1 0 0 1 .718.766 50.273 50.273 0 0 0 7.824 18.488 1 1 0 0 1 .051 1.048l-6.251 11.351 7.811 7.672 11.253-6.41a1 1 0 0 1 1.047.035 50.267 50.267 0 0 0 18.609 7.535 1 1 0 0 1 .777.706z"/><path d="m75 113.667a38.66 38.66 0 0 1 -38.667-38.352 38.675 38.675 0 1 1 38.983 38.351zm.02-75.335h-.3a36.666 36.666 0 0 0 -36.387 36.968 36.672 36.672 0 1 0 36.691-36.968z"/><path d="m100.441 103.78a1 1 0 0 1 -.881-.525 12.049 12.049 0 0 0 -8.025-6.048l-6.628-1.357a.6.6 0 0 1 -.061-.011 6.218 6.218 0 0 1 -4.6-3.766 5.7 5.7 0 0 1 -.389-2.013 1 1 0 0 1 2-.01 3.718 3.718 0 0 0 .258 1.312 4.216 4.216 0 0 0 3.091 2.51.434.434 0 0 1 .052.009l6.69 1.37a14.056 14.056 0 0 1 9.369 7.055 1 1 0 0 1 -.879 1.474z"/><path d="m49.559 103.77a1 1 0 0 1 -.878-1.477 14.072 14.072 0 0 1 9.354-7.039l6.944-1.424.1-.018a3.528 3.528 0 0 0 1.832-.949 3.573 3.573 0 0 0 1.039-2.533 1 1 0 0 1 2 0 5.484 5.484 0 0 1 -4.5 5.448l-.105.019-6.89 1.413a12.068 12.068 0 0 0 -8.012 6.036 1 1 0 0 1 -.884.524z"/><path d="m60.066 73.31a1 1 0 0 1 -.931-.639c-.175-.448-4.234-11.054-1.461-16.15a5.083 5.083 0 0 1 3.584-2.643 27.484 27.484 0 0 0 7.478-2.51c4.37-2.334 10.7-4.511 16.036-1.638a15.7 15.7 0 0 1 8.514 14.291 6.257 6.257 0 0 1 -4.363 5.325c-2.88 1.1-6.034.6-7.849-1.242l-.172-.17a.332.332 0 0 0 -.418-.057.294.294 0 0 0 -.148.357 2.327 2.327 0 0 1 -3.366 2.6 6.257 6.257 0 0 1 -1.509-1.177 4.62 4.62 0 0 0 -1.75-1.194 8.308 8.308 0 0 0 -9.7 2.491 5.88 5.88 0 0 1 -3.783 2.346.992.992 0 0 1 -.162.01zm19.012-22.951a20.95 20.95 0 0 0 -9.4 2.773 29.343 29.343 0 0 1 -8.014 2.705 3.116 3.116 0 0 0 -2.231 1.639c-1.769 3.249.091 10.29 1.259 13.631a4.088 4.088 0 0 0 1.736-1.37 10.312 10.312 0 0 1 12.035-3.124 6.532 6.532 0 0 1 2.406 1.626 4.353 4.353 0 0 0 1.056.841.3.3 0 0 0 .35-.029.317.317 0 0 0 .12-.34 2.3 2.3 0 0 1 1.09-2.565 2.335 2.335 0 0 1 2.8.343c.072.07.145.142.216.215 1.46 1.483 3.919 1.455 5.708.774 1.856-.709 3.007-2.037 3.079-3.552a13.689 13.689 0 0 0 -7.464-12.434 9.88 9.88 0 0 0 -4.746-1.133z"/><path d="m74.766 94.028a7.286 7.286 0 0 1 -3.469-.869c-4.759-2.578-7.689-7.569-8.355-8.793-5.756-3.478-5.013-9.643-3.793-12.455a1 1 0 0 1 1.835.8c-.114.268-2.765 6.659 3.2 10.071a1 1 0 0 1 .4.416c.028.057 2.891 5.619 7.665 8.206a5.329 5.329 0 0 0 5.03 0c4.775-2.587 7.637-8.149 7.666-8.206a1 1 0 0 1 .4-.416c6.1-3.486 3.185-14.129 3.155-14.235a1 1 0 1 1 1.922-.547c.139.493 3.279 11.989-3.832 16.363-.664 1.22-3.594 6.215-8.357 8.8a7.281 7.281 0 0 1 -3.467.865z"/><path d="m74.764 104.253a1 1 0 0 1 -.664-.253l-9.583-8.44a1 1 0 1 1 1.322-1.5l8.95 7.882 9.626-7.86a1 1 0 1 1 1.265 1.549l-10.284 8.4a.994.994 0 0 1 -.632.222z"/><path d="m72.21 113.57a1 1 0 0 1 -1-1v-11.48a1 1 0 0 1 2 0v11.48a1 1 0 0 1 -1 1z"/><path d="m77.79 113.57a1 1 0 0 1 -1-1v-11.263a1 1 0 0 1 .9-1.437h.1a1 1 0 0 1 1 1v11.7a1 1 0 0 1 -1 1z"/></svg>