<svg id="Layer_1" height="512" viewBox="0 0 150 150" width="512" xmlns="http://www.w3.org/2000/svg" data-name="Layer 1"><path d="m76.575 79.912h-3.15a1 1 0 0 1 -.963-.73l-.773-2.756a13.929 13.929 0 0 1 -4.014-1.662l-2.5 1.4a1 1 0 0 1 -1.2-.165l-2.225-2.225a1 1 0 0 1 -.165-1.2l1.4-2.5a13.921 13.921 0 0 1 -1.663-4.015l-2.755-.772a1 1 0 0 1 -.73-.963v-3.15a1 1 0 0 1 .73-.963l2.756-.773a13.955 13.955 0 0 1 1.662-4.013l-1.4-2.5a1 1 0 0 1 .164-1.2l2.225-2.229a1 1 0 0 1 1.2-.166l2.5 1.406a13.832 13.832 0 0 1 4.01-1.666l.773-2.755a1 1 0 0 1 .963-.73h3.15a1 1 0 0 1 .963.73l.773 2.756a13.834 13.834 0 0 1 4.01 1.665l2.5-1.406a1 1 0 0 1 1.2.165l2.23 2.229a1 1 0 0 1 .165 1.2l-1.4 2.5a13.955 13.955 0 0 1 1.662 4.013l2.756.773a1 1 0 0 1 .73.963v3.15a1 1 0 0 1 -.73.963l-2.755.772a13.952 13.952 0 0 1 -1.662 4.014l1.4 2.5a1 1 0 0 1 -.166 1.2l-2.227 2.228a1 1 0 0 1 -1.2.164l-2.5-1.4a13.929 13.929 0 0 1 -4.014 1.662l-.773 2.756a1 1 0 0 1 -.957.73zm-2.392-2h1.634l.73-2.6a1 1 0 0 1 .771-.712 11.954 11.954 0 0 0 4.413-1.827 1 1 0 0 1 1.047-.043l2.363 1.322 1.159-1.159-1.324-2.361a1 1 0 0 1 .042-1.048 11.948 11.948 0 0 0 1.827-4.413 1 1 0 0 1 .712-.771l2.6-.731v-1.633l-2.6-.73a1 1 0 0 1 -.712-.772 12 12 0 0 0 -1.828-4.414 1 1 0 0 1 -.041-1.046l1.324-2.362-1.158-1.157-2.366 1.329a1 1 0 0 1 -1.05-.044 11.889 11.889 0 0 0 -4.407-1.831 1 1 0 0 1 -.771-.711l-.73-2.6h-1.635l-.73 2.6a1 1 0 0 1 -.771.711 11.884 11.884 0 0 0 -4.407 1.831 1 1 0 0 1 -1.05.044l-2.365-1.329-1.155 1.157 1.322 2.363a1 1 0 0 1 -.042 1.045 12 12 0 0 0 -1.828 4.414 1 1 0 0 1 -.712.772l-2.6.73v1.633l2.6.731a1 1 0 0 1 .712.771 11.948 11.948 0 0 0 1.827 4.413 1 1 0 0 1 .043 1.047l-1.321 2.362 1.154 1.154 2.362-1.321a1 1 0 0 1 1.047.043 11.954 11.954 0 0 0 4.413 1.831 1 1 0 0 1 .771.712z"/><path d="m75 70.118a7.365 7.365 0 1 1 7.367-7.363 7.371 7.371 0 0 1 -7.367 7.363zm0-12.73a5.365 5.365 0 1 0 5.367 5.367 5.371 5.371 0 0 0 -5.367-5.367z"/><path d="m115.6 140h-81.2a6.269 6.269 0 0 1 -6.262-6.262v-95.392a6.27 6.27 0 0 1 6.262-6.263h18.727a1 1 0 1 1 0 2h-18.727a4.268 4.268 0 0 0 -4.262 4.263v95.392a4.267 4.267 0 0 0 4.262 4.262h81.2a4.267 4.267 0 0 0 4.262-4.262v-95.392a4.268 4.268 0 0 0 -4.262-4.263h-18.739a1 1 0 0 1 0-2h18.739a6.27 6.27 0 0 1 6.262 6.263v95.392a6.269 6.269 0 0 1 -6.262 6.262z"/><path d="m96.861 40.909h-43.735a1 1 0 0 1 -1-1v-7.877a13.089 13.089 0 0 1 12.892-13.066 10.039 10.039 0 0 1 19.963 0 13.084 13.084 0 0 1 12.88 13.066v7.877a1 1 0 0 1 -1 1zm-42.735-2h41.735v-6.877a11.08 11.08 0 0 0 -11.068-11.068h-.754a1 1 0 0 1 -1-.99 8.039 8.039 0 0 0 -16.078 0 1 1 0 0 1 -1 .992h-.754a11.087 11.087 0 0 0 -11.081 11.066z"/><path d="m75 24.884a4.815 4.815 0 1 1 4.808-4.821 4.82 4.82 0 0 1 -4.808 4.821zm0-7.629a2.815 2.815 0 1 0 2.808 2.808 2.812 2.812 0 0 0 -2.808-2.808z"/><path d="m44.156 129.2a1 1 0 0 1 -.684-.271l-5.062-4.749a1 1 0 0 1 1.367-1.459l4.379 4.1 9.44-8.846a1 1 0 1 1 1.367 1.459l-10.124 9.487a1 1 0 0 1 -.683.279z"/><path d="m110.906 124.451h-46.368a1 1 0 1 1 0-2h46.368a1 1 0 0 1 0 2z"/><path d="m44.156 110.437a1 1 0 0 1 -.684-.271l-5.062-4.744a1 1 0 0 1 1.367-1.459l4.379 4.1 9.444-8.844a1 1 0 1 1 1.368 1.459l-10.128 9.488a1 1 0 0 1 -.684.271z"/><path d="m110.906 105.692h-46.368a1 1 0 0 1 0-2h46.368a1 1 0 0 1 0 2z"/><path d="m44.156 91.678a1 1 0 0 1 -.684-.271l-5.062-4.743a1 1 0 1 1 1.367-1.459l4.379 4.1 9.444-8.845a1 1 0 1 1 1.367 1.459l-10.128 9.488a1 1 0 0 1 -.683.271z"/><path d="m110.906 86.934h-46.368a1 1 0 1 1 0-2h46.368a1 1 0 0 1 0 2z"/></svg>