<svg id="Layer_1" height="512" viewBox="0 0 150 150" width="512" xmlns="http://www.w3.org/2000/svg" data-name="Layer 1"><path d="m114.734 140h-5.3a1 1 0 0 1 -.961-.723l-1.444-5a22.707 22.707 0 0 1 -7.285-2.949l-4.523 2.577a1 1 0 0 1 -1.2-.156l-3.77-3.7a1 1 0 0 1 -.175-1.195l2.513-4.563a22.693 22.693 0 0 1 -3.063-7.237l-5.022-1.366a1 1 0 0 1 -.737-.957l-.041-5.287a1 1 0 0 1 .722-.968l5-1.444a22.806 22.806 0 0 1 2.95-7.284l-2.584-4.523a1 1 0 0 1 .156-1.2l3.712-3.769a1 1 0 0 1 1.2-.175l4.569 2.52a22.579 22.579 0 0 1 7.231-3.07l1.366-5.022a1 1 0 0 1 .952-.739l5.286-.041h.007a1 1 0 0 1 .961.722l1.445 5a22.571 22.571 0 0 1 7.277 2.956l4.529-2.591a1 1 0 0 1 1.2.157l3.762 3.712a1 1 0 0 1 .175 1.193l-2.507 4.563a22.8 22.8 0 0 1 3.064 7.238l5.022 1.366a1 1 0 0 1 .737.957l.041 5.286a1 1 0 0 1 -.723.969l-5 1.443a22.7 22.7 0 0 1 -2.95 7.285l2.577 4.524a1 1 0 0 1 -.156 1.2l-3.7 3.762a1 1 0 0 1 -1.194.176l-4.563-2.506a22.716 22.716 0 0 1 -7.235 3.062l-1.353 5.059a1 1 0 0 1 -.968.738zm-4.549-2h3.781l1.312-4.907a1 1 0 0 1 .767-.721 20.752 20.752 0 0 0 7.628-3.228 1 1 0 0 1 1.047-.052l4.431 2.433 2.641-2.683-2.5-4.393a1 1 0 0 1 .034-1.047 20.733 20.733 0 0 0 3.109-7.677 1 1 0 0 1 .706-.778l4.854-1.4-.029-3.771-4.876-1.326a1 1 0 0 1 -.717-.765 20.825 20.825 0 0 0 -3.23-7.63 1 1 0 0 1 -.05-1.045l2.434-4.432-2.684-2.647-4.4 2.515a1 1 0 0 1 -1.05-.035 20.6 20.6 0 0 0 -7.669-3.115 1 1 0 0 1 -.777-.706l-1.4-4.855-3.769.03-1.327 4.876a1 1 0 0 1 -.765.716 20.653 20.653 0 0 0 -7.619 3.236 1.008 1.008 0 0 1 -1.05.052l-4.44-2.445-2.648 2.691 2.508 4.391a1 1 0 0 1 -.033 1.047 20.82 20.82 0 0 0 -3.11 7.671 1 1 0 0 1 -.706.777l-4.854 1.4.03 3.77 4.876 1.326a1 1 0 0 1 .717.766 20.742 20.742 0 0 0 3.228 7.628 1 1 0 0 1 .051 1.048l-2.436 4.435 2.69 2.643 4.393-2.5a1 1 0 0 1 1.048.035 20.736 20.736 0 0 0 7.669 3.106 1 1 0 0 1 .777.706z"/><path d="m111.868 125.81a13.962 13.962 0 0 1 -13.949-13.832 13.944 13.944 0 0 1 13.841-14.059h.112a13.946 13.946 0 0 1 .106 27.891zm-11.949-13.848a11.96 11.96 0 0 0 11.949 11.848h.094a11.946 11.946 0 0 0 -.09-23.891h-.1a11.945 11.945 0 0 0 -11.857 12.043z"/><path d="m103.27 140h-92.27a1 1 0 0 1 -1-1v-128a1 1 0 0 1 1-1h69.9a1 1 0 0 1 0 2h-68.9v126h90.27v-5.96a1 1 0 0 1 2 0v6.96a1 1 0 0 1 -1 1z"/><path d="m103.27 92.69a1 1 0 0 1 -1-1v-58.33a1 1 0 0 1 2 0v58.33a1 1 0 0 1 -1 1z"/><path d="m103.273 34.356h-22.373a1 1 0 0 1 -1-1v-22.356a1 1 0 0 1 1.707-.707l22.373 22.356a1 1 0 0 1 -.707 1.707zm-21.371-2h18.955l-18.957-18.943z"/><path d="m56.8 34.36h-34.7a1 1 0 0 1 0-2h34.7a1 1 0 0 1 0 2z"/><path d="m83.194 54.988h-61.087a1 1 0 0 1 0-2h61.087a1 1 0 1 1 0 2z"/><path d="m94.191 75.616h-72.084a1 1 0 0 1 0-2h72.084a1 1 0 0 1 0 2z"/><path d="m76.83 96.241h-54.72a1 1 0 0 1 0-2h54.72a1 1 0 0 1 0 2z"/><path d="m76.83 120.07h-54.723a1 1 0 0 1 0-2h54.723a1 1 0 0 1 0 2z"/></svg>