<svg id="Layer_1" height="512" viewBox="0 0 150 150" width="512" xmlns="http://www.w3.org/2000/svg" data-name="Layer 1"><path d="m124.637 140h-99.274a1 1 0 0 1 -1-1v-105.644a1 1 0 0 1 2 0v104.644h97.274v-126h-75.9a1 1 0 0 1 0-2h76.9a1 1 0 0 1 1 1v128a1 1 0 0 1 -1 1z"/><path d="m47.734 34.356h-22.371a1 1 0 0 1 -.707-1.707l22.371-22.357a1 1 0 0 1 1.707.708v22.356a1 1 0 0 1 -1 1zm-19.956-2h18.956v-18.943z"/><path d="m84.7 125.818h-46.851a1 1 0 0 1 0-2h46.851a1 1 0 0 1 0 2z"/><path d="m112.339 112.936h-74.49a1 1 0 1 1 0-2h74.49a1 1 0 0 1 0 2z"/><path d="m112.339 100.053h-74.49a1 1 0 1 1 0-2h74.49a1 1 0 0 1 0 2z"/><path d="m112.339 87.171h-74.49a1 1 0 0 1 0-2h74.49a1 1 0 0 1 0 2z"/><path d="m95.556 74.182h-41.112a2.76 2.76 0 0 1 -2.757-2.757v-4.4a11.87 11.87 0 0 1 9.264-11.525l5.736-1.175a2.87 2.87 0 0 0 1.944-1.324 2.818 2.818 0 0 0 .372-1.4 1 1 0 0 1 2 0 4.728 4.728 0 0 1 -3.914 4.681l-5.722 1.178a9.854 9.854 0 0 0 -7.68 9.566v4.4a.758.758 0 0 0 .757.757h41.112a.758.758 0 0 0 .756-.757v-4.4a9.855 9.855 0 0 0 -7.693-9.568l-5.519-1.132a5.3 5.3 0 0 1 -3.87-3.087 4.783 4.783 0 0 1 -.388-1.859 1 1 0 1 1 2 0 2.858 2.858 0 0 0 .231 1.085 3.311 3.311 0 0 0 2.429 1.9l5.533 1.135a11.873 11.873 0 0 1 9.277 11.525v4.4a2.76 2.76 0 0 1 -2.756 2.757z"/><path d="m62.666 37.725a1 1 0 0 1 -.932-.639c-.369-.952-3.541-9.427-1.133-13.6a4.446 4.446 0 0 1 3.29-2.206 16.925 16.925 0 0 0 5.565-1.851c3.731-2.045 9.133-3.965 13.7-1.508a13.138 13.138 0 0 1 7.123 11.965 4.933 4.933 0 0 1 -2.525 3.965 6.993 6.993 0 0 1 -6.312.579 2.15 2.15 0 0 0 -1.976.073l-.084.05a4.119 4.119 0 0 1 -4.623-.352c-.684-.526-2.133-1.171-7.245-1.565-.45 1.7-1.654 4.582-4.684 5.074a1.092 1.092 0 0 1 -.164.015zm15.694-18.958a17.394 17.394 0 0 0 -7.943 2.418 18.892 18.892 0 0 1 -6.22 2.073 2.417 2.417 0 0 0 -1.864 1.23c-1.467 2.542-.021 8.173.95 11.005 1.806-.875 2.353-3.506 2.452-4.084a1 1 0 0 1 1.052-.828c5.944.394 7.973 1.1 9.19 2.038a2.131 2.131 0 0 0 2.385.214l.087-.051a4.127 4.127 0 0 1 3.8-.18 5.09 5.09 0 0 0 4.452-.45 3.068 3.068 0 0 0 1.58-2.36 11.129 11.129 0 0 0 -6.073-10.108 8.013 8.013 0 0 0 -3.848-.917z"/><path d="m74.807 54.837a6.2 6.2 0 0 1 -2.948-.739 19.338 19.338 0 0 1 -6.949-7.291c-4.813-2.938-4.186-8.116-3.16-10.481a1 1 0 1 1 1.834.8c-.092.215-2.219 5.359 2.573 8.1a.993.993 0 0 1 .4.416c.023.046 2.366 4.593 6.259 6.7a4.224 4.224 0 0 0 3.988 0c3.909-2.117 6.235-6.655 6.259-6.7a1 1 0 0 1 .4-.417c4.907-2.8 2.549-11.473 2.524-11.56a1 1 0 0 1 1.926-.541c.116.411 2.731 9.987-3.2 13.685a19.329 19.329 0 0 1 -6.95 7.293 6.2 6.2 0 0 1 -2.956.735z"/><path d="m74.806 63.281a1 1 0 0 1 -.661-.249l-7.918-6.973a1 1 0 0 1 1.322-1.5l7.281 6.411 7.836-6.4a1 1 0 0 1 1.266 1.549l-8.494 6.935a1 1 0 0 1 -.632.227z"/><path d="m90.018 67.747h-5.137a1 1 0 0 1 0-2h5.137a1 1 0 0 1 0 2z"/></svg>